# Blender v2.78 (sub 0) OBJ File: ''
# www.blender.org
o Cylinder
v 0.000000 -0.041316 -0.003352
v 0.001454 -0.041316 -0.003020
v 0.002620 -0.041316 -0.002090
v 0.003268 -0.041316 -0.000746
v 0.003268 -0.041316 0.000746
v 0.002620 -0.041316 0.002090
v 0.001454 -0.041316 0.003020
v 0.000000 -0.041316 0.003352
v -0.001454 -0.041316 0.003020
v -0.002620 -0.041316 0.002090
v -0.003268 -0.041316 0.000746
v -0.003268 -0.041316 -0.000746
v -0.002620 -0.041316 -0.002090
v -0.001454 -0.041316 -0.003020
v 0.004634 0.050941 -0.009623
v -0.000000 0.050941 -0.010681
v 0.008351 0.050941 -0.006660
v 0.010413 0.050941 -0.002377
v 0.010413 0.050941 0.002377
v 0.008351 0.050941 0.006660
v 0.004634 0.050941 0.009623
v 0.000000 0.050941 0.010681
v -0.004634 0.050941 0.009623
v -0.008351 0.050941 0.006660
v -0.010413 0.050941 0.002377
v -0.010413 0.050941 -0.002377
v -0.008351 0.050941 -0.006660
v -0.004634 0.050941 -0.009623
v 0.003817 0.055842 -0.007926
v -0.000000 0.055842 -0.008797
v 0.006878 0.055842 -0.005485
v 0.008577 0.055842 -0.001958
v 0.008577 0.055842 0.001958
v 0.006878 0.055842 0.005485
v 0.003817 0.055842 0.007926
v 0.000000 0.055842 0.008797
v -0.003817 0.055842 0.007926
v -0.006878 0.055842 0.005485
v -0.008577 0.055842 0.001958
v -0.008577 0.055842 -0.001958
v -0.006878 0.055842 -0.005485
v -0.003817 0.055842 -0.007926
v 0.000000 0.038142 -0.003352
v -0.005214 0.044542 -0.004158
v -0.006501 0.044542 -0.001484
v 0.001454 0.038142 -0.003020
v -0.006501 0.044542 0.001484
v 0.002620 0.038142 -0.002090
v -0.005214 0.044542 0.004158
v 0.003268 0.038142 -0.000746
v -0.002893 0.044542 0.006008
v 0.003268 0.038142 0.000746
v 0.000000 0.044542 0.006669
v 0.002620 0.038142 0.002090
v 0.002893 0.044542 0.006008
v 0.001454 0.038142 0.003020
v 0.005214 0.044542 0.004158
v 0.000000 0.038142 0.003352
v 0.006501 0.044542 0.001484
v -0.001454 0.038142 0.003020
v 0.006501 0.044542 -0.001484
v -0.002620 0.038142 0.002090
v 0.005214 0.044542 -0.004158
v -0.003268 0.038142 0.000746
v 0.002893 0.044542 -0.006008
v -0.003268 0.038142 -0.000746
v -0.002893 0.044542 -0.006008
v -0.002620 0.038142 -0.002090
v -0.000000 0.044542 -0.006669
v -0.001454 0.038142 -0.003020
v 0.000000 -0.049156 -0.000672
v 0.000292 -0.049156 -0.000606
v 0.000526 -0.049156 -0.000419
v 0.000656 -0.049156 -0.000150
v 0.000656 -0.049156 0.000150
v 0.000526 -0.049156 0.000419
v 0.000292 -0.049156 0.000606
v 0.000000 -0.049156 0.000672
v -0.000292 -0.049156 0.000606
v -0.000526 -0.049156 0.000419
v -0.000656 -0.049156 0.000150
v -0.000656 -0.049156 -0.000150
v -0.000526 -0.049156 -0.000419
v -0.000292 -0.049156 -0.000606
v 0.004634 0.055842 -0.009623
v -0.000000 0.055842 -0.010681
v 0.008351 0.055842 -0.006660
v 0.010413 0.055842 -0.002377
v 0.010413 0.055842 0.002377
v 0.008351 0.055842 0.006660
v 0.004634 0.055842 0.009623
v 0.000000 0.055842 0.010681
v -0.004634 0.055842 0.009623
v -0.008351 0.055842 0.006660
v -0.010413 0.055842 0.002377
v -0.010413 0.055842 -0.002377
v -0.008351 0.055842 -0.006660
v -0.004634 0.055842 -0.009623
v 0.002251 0.053844 -0.004674
v -0.000000 0.053844 -0.005187
v 0.004056 0.053844 -0.003234
v 0.005057 0.053844 -0.001154
v 0.005057 0.053844 0.001154
v 0.004056 0.053844 0.003234
v 0.002251 0.053844 0.004674
v 0.000000 0.053844 0.005187
v -0.002251 0.053844 0.004674
v -0.004056 0.053844 0.003234
v -0.005057 0.053844 0.001154
v -0.005057 0.053844 -0.001154
v -0.004056 0.053844 -0.003234
v -0.002251 0.053844 -0.004674
vt 0.1846 0.0181
vt 0.9209 0.0024
vt 0.9209 0.0181
vt 0.1178 0.1914
vt 0.0478 0.1756
vt 0.1178 0.1756
vt 0.1178 0.1599
vt 0.0478 0.1599
vt 0.0478 0.1441
vt 0.1178 0.1441
vt 0.1178 0.1284
vt 0.0478 0.1284
vt 0.1178 0.1126
vt 0.0478 0.1126
vt 0.0478 0.0969
vt 0.1178 0.0969
vt 0.0478 0.0811
vt 0.1178 0.0811
vt 0.1178 0.0654
vt 0.0478 0.0654
vt 0.0478 0.0496
vt 0.1178 0.0496
vt 0.0478 0.0339
vt 0.1178 0.0339
vt 0.0478 0.0181
vt 0.1178 0.0181
vt 0.1846 0.1756
vt 0.9209 0.1599
vt 0.9209 0.1756
vt 0.0478 0.0024
vt 0.1178 0.0024
vt 0.1846 0.2229
vt 0.1178 0.2071
vt 0.1846 0.2071
vt 0.9209 0.2071
vt 0.9976 0.2229
vt 0.9209 0.2229
vt 0.1846 0.0969
vt 0.9209 0.0811
vt 0.9209 0.0969
vt 0.9209 0.1914
vt 0.1846 0.1284
vt 0.9209 0.1126
vt 0.9209 0.1284
vt 0.1846 0.0496
vt 0.9209 0.0339
vt 0.9209 0.0496
vt 0.1846 0.1599
vt 0.9209 0.1441
vt 0.1846 0.0811
vt 0.9209 0.0654
vt 0.0478 0.1914
vt 0.1846 0.1914
vt 0.1846 0.1126
vt 0.1846 0.0339
vt 0.1846 0.1441
vt 0.1846 0.0654
vt 0.1846 0.0024
vt 0.9976 0.0811
vt 0.9976 0.0969
vt 0.9976 0.2071
vt 0.9976 0.0654
vt 0.9976 0.1914
vt 0.9976 0.1756
vt 0.9976 0.0496
vt 0.9976 0.1441
vt 0.9976 0.1599
vt 0.9976 0.0339
vt 0.9976 0.1284
vt 0.9976 0.0181
vt 0.9976 0.1126
vt 0.1178 0.2229
vt 0.0478 0.2071
vt 0.9976 0.0024
vt 0.0478 0.2229
vt 0.0024 0.0496
vt 0.0024 0.1599
vt 0.0024 0.0339
vt 0.0024 0.1441
vt 0.0024 0.0181
vt 0.0024 0.1284
vt 0.0024 0.0024
vt 0.0024 0.1126
vt 0.0024 0.0969
vt 0.0024 0.2071
vt 0.0024 0.0811
vt 0.0024 0.1914
vt 0.0024 0.0654
vt 0.0024 0.1756
vt 0.0024 0.2229
vt 0.1785 0.3449
vt 0.1426 0.3170
vt 0.1785 0.3086
vt 0.0635 0.2532
vt 0.0215 0.2650
vt 0.0560 0.2375
vt 0.0194 0.3087
vt 0.0351 0.2759
vt 0.0024 0.3490
vt 0.0024 0.3048
vt 0.0194 0.3451
vt 0.0216 0.3887
vt 0.0637 0.4005
vt 0.0352 0.3779
vt 0.0991 0.4086
vt 0.0561 0.4162
vt 0.1421 0.4161
vt 0.0991 0.4260
vt 0.1628 0.3777
vt 0.1345 0.4004
vt 0.1764 0.3885
vt 0.1955 0.3488
vt 0.1628 0.2758
vt 0.1955 0.3047
vt 0.1344 0.2531
vt 0.1764 0.2650
vt 0.0990 0.2276
vt 0.1420 0.2375
vt 0.0989 0.2451
vt 0.1187 0.2864
vt 0.1338 0.3550
vt 0.0554 0.3166
vt 0.0553 0.3366
vt 0.1341 0.2990
vt 0.0639 0.3547
vt 0.0794 0.3673
vt 0.0993 0.2819
vt 0.0988 0.3718
vt 0.0798 0.2862
vt 0.1182 0.3675
vt 0.0642 0.2986
vt 0.1425 0.3370
vt 0.2108 0.2299
vt 0.2087 0.2391
vt 0.2002 0.2350
vt 0.2014 0.2299
vt 0.2035 0.2282
vt 0.2061 0.2276
vt 0.2087 0.2282
vt 0.2120 0.2323
vt 0.2120 0.2350
vt 0.2108 0.2374
vt 0.2061 0.2397
vt 0.2035 0.2391
vt 0.2014 0.2374
vt 0.2002 0.2323
vn -0.4207 -0.2449 -0.8735
vn 0.0000 -0.1603 -0.9871
vn -0.4283 -0.1603 -0.8893
vn 0.6777 -0.4986 -0.5405
vn 0.9397 -0.2665 -0.2145
vn 0.8451 -0.4986 -0.1929
vn 0.8451 -0.4986 0.1929
vn 0.9397 -0.2665 0.2145
vn 0.7535 -0.2665 0.6009
vn 0.6777 -0.4986 0.5405
vn 0.3761 -0.4986 0.7810
vn 0.4182 -0.2665 0.8684
vn 0.0000 -0.4986 0.8668
vn 0.0000 -0.2665 0.9638
vn -0.4182 -0.2665 0.8684
vn -0.3761 -0.4986 0.7810
vn -0.7535 -0.2665 0.6009
vn -0.6777 -0.4986 0.5405
vn -0.8451 -0.4986 0.1929
vn -0.9397 -0.2665 0.2145
vn -0.9397 -0.2665 -0.2145
vn -0.8451 -0.4986 -0.1929
vn -0.7535 -0.2665 -0.6009
vn -0.6777 -0.4986 -0.5405
vn -0.4182 -0.2665 -0.8684
vn -0.3761 -0.4986 -0.7810
vn 0.9452 -0.2449 -0.2157
vn 0.9623 -0.1603 0.2196
vn 0.9623 -0.1603 -0.2196
vn 0.0000 -0.2665 -0.9638
vn 0.0000 -0.4986 -0.8668
vn 0.0000 -0.2449 -0.9695
vn 0.3761 -0.4986 -0.7810
vn 0.4207 -0.2449 -0.8735
vn 0.4283 -0.1603 -0.8893
vn 0.0000 -0.7754 -0.6315
vn -0.4207 -0.2449 0.8735
vn -0.7717 -0.1603 0.6154
vn -0.4283 -0.1603 0.8893
vn 0.7717 -0.1603 -0.6154
vn 0.4207 -0.2449 0.8735
vn 0.0000 -0.1603 0.9871
vn 0.4283 -0.1603 0.8893
vn -0.9452 -0.2449 -0.2157
vn -0.7717 -0.1603 -0.6154
vn -0.9623 -0.1603 -0.2196
vn 0.9452 -0.2449 0.2157
vn 0.7717 -0.1603 0.6154
vn -0.7580 -0.2449 0.6045
vn -0.9623 -0.1603 0.2196
vn 0.7535 -0.2665 -0.6009
vn 0.7580 -0.2449 -0.6045
vn 0.0000 -0.2449 0.9695
vn -0.7580 -0.2449 -0.6045
vn 0.7580 -0.2449 0.6045
vn -0.9452 -0.2449 0.2157
vn -0.4937 -0.7754 0.3937
vn -0.2740 -0.7754 0.5689
vn 0.2740 -0.7754 -0.5690
vn -0.6156 -0.7754 0.1405
vn 0.4937 -0.7754 -0.3937
vn 0.6156 -0.7754 -0.1405
vn -0.6156 -0.7754 -0.1405
vn 0.4937 -0.7754 0.3937
vn 0.6156 -0.7754 0.1405
vn -0.4937 -0.7754 -0.3937
vn 0.2740 -0.7754 0.5690
vn -0.2740 -0.7754 -0.5689
vn 0.0000 -0.7754 0.6315
vn 0.4182 -0.2665 -0.8684
vn -0.7322 0.6603 -0.1671
vn 0.7322 0.6603 0.1671
vn -0.5871 0.6603 -0.4682
vn 0.5871 0.6603 0.4682
vn -0.3258 0.6603 -0.6766
vn 0.3258 0.6603 0.6766
vn 0.0000 0.6603 -0.7510
vn 0.0000 0.6603 0.7510
vn -0.3258 0.6603 0.6766
vn 0.3258 0.6603 -0.6766
vn -0.5871 0.6603 0.4682
vn 0.5871 0.6603 -0.4682
vn -0.7322 0.6603 0.1671
vn 0.7322 0.6603 -0.1671
vn 0.1689 0.9764 -0.1346
vn 0.2758 0.9591 -0.0629
vn 0.2106 0.9764 -0.0480
vn 0.0000 0.9764 0.2160
vn -0.1689 0.9764 0.1346
vn -0.0937 0.9764 0.1946
vn -0.2106 0.9764 0.0480
vn -0.1689 0.9764 -0.1346
vn -0.2106 0.9764 -0.0480
vn -0.0937 0.9764 -0.1946
vn 0.0937 0.9764 -0.1946
vn 0.0000 0.9764 -0.2160
vn 0.2106 0.9764 0.0480
vn 0.1689 0.9764 0.1346
vn 0.0937 0.9764 0.1946
vn 0.2211 0.9591 0.1764
vn 0.1227 0.9591 -0.2549
vn -0.2211 0.9591 0.1764
vn -0.2758 0.9591 0.0629
vn 0.2758 0.9591 0.0629
vn -0.2758 0.9591 -0.0629
vn -0.2211 0.9591 -0.1764
vn 0.1227 0.9591 0.2549
vn -0.1227 0.9591 -0.2549
vn 0.0000 0.9591 0.2828
vn 0.0000 0.9591 -0.2828
vn -0.1227 0.9591 0.2548
vn 0.2211 0.9591 -0.1764
s 1
f 70/1/1 1/2/2 14/3/3
f 63/4/4 18/5/5 61/6/6
f 59/7/7 18/5/5 19/8/8
f 59/7/7 20/9/9 57/10/10
f 55/11/11 20/9/9 21/12/12
f 53/13/13 21/12/12 22/14/14
f 53/13/13 23/15/15 51/16/16
f 51/16/16 24/17/17 49/18/18
f 47/19/19 24/17/17 25/20/20
f 47/19/19 26/21/21 45/22/22
f 45/22/22 27/23/23 44/24/24
f 44/24/24 28/25/25 67/26/26
f 50/27/27 5/28/28 4/29/29
f 67/26/26 16/30/30 69/31/31
f 43/32/32 65/33/33 46/34/34
f 2/35/35 71/36/36 1/37/2
f 60/38/37 10/39/38 9/40/39
f 46/34/34 3/41/40 2/35/35
f 56/42/41 8/43/42 7/44/43
f 66/45/44 13/46/45 12/47/46
f 52/48/47 6/49/48 5/28/28
f 62/50/49 11/51/50 10/39/38
f 65/33/33 17/52/51 63/4/4
f 48/53/52 4/29/29 3/41/40
f 58/54/53 9/40/39 8/43/42
f 68/55/54 14/3/3 13/46/45
f 54/56/55 7/44/43 6/49/48
f 64/57/56 12/47/46 11/51/50
f 48/53/52 61/6/6 50/27/27
f 50/27/27 59/7/7 52/48/47
f 52/48/47 57/10/10 54/56/55
f 54/56/55 55/11/11 56/42/41
f 56/42/41 53/13/13 58/54/53
f 58/54/53 51/16/16 60/38/37
f 60/38/37 49/18/18 62/50/49
f 64/57/56 49/18/18 47/19/19
f 64/57/56 45/22/22 66/45/44
f 66/45/44 44/24/24 68/55/54
f 70/1/1 44/24/24 67/26/26
f 43/58/32 67/26/26 69/31/31
f 46/34/34 63/4/4 48/53/52
f 43/32/32 2/35/35 1/37/2
f 9/40/39 80/59/57 79/60/58
f 3/41/40 72/61/59 2/35/35
f 10/39/38 81/62/60 80/59/57
f 4/29/29 73/63/61 3/41/40
f 12/47/46 81/62/60 11/51/50
f 5/28/28 74/64/62 4/29/29
f 13/46/45 82/65/63 12/47/46
f 5/28/28 76/66/64 75/67/65
f 14/3/3 83/68/66 13/46/45
f 6/49/48 77/69/67 76/66/64
f 1/2/2 84/70/68 14/3/3
f 7/44/43 78/71/69 77/69/67
f 8/43/42 79/60/58 78/71/69
f 69/72/31 15/73/70 65/33/33
f 70/1/1 43/58/32 1/2/2
f 63/4/4 17/52/51 18/5/5
f 59/7/7 61/6/6 18/5/5
f 59/7/7 19/8/8 20/9/9
f 55/11/11 57/10/10 20/9/9
f 53/13/13 55/11/11 21/12/12
f 53/13/13 22/14/14 23/15/15
f 51/16/16 23/15/15 24/17/17
f 47/19/19 49/18/18 24/17/17
f 47/19/19 25/20/20 26/21/21
f 45/22/22 26/21/21 27/23/23
f 44/24/24 27/23/23 28/25/25
f 50/27/27 52/48/47 5/28/28
f 67/26/26 28/25/25 16/30/30
f 43/32/32 69/72/31 65/33/33
f 2/35/35 72/61/59 71/36/36
f 60/38/37 62/50/49 10/39/38
f 46/34/34 48/53/52 3/41/40
f 56/42/41 58/54/53 8/43/42
f 66/45/44 68/55/54 13/46/45
f 52/48/47 54/56/55 6/49/48
f 62/50/49 64/57/56 11/51/50
f 65/33/33 15/73/70 17/52/51
f 48/53/52 50/27/27 4/29/29
f 58/54/53 60/38/37 9/40/39
f 68/55/54 70/1/1 14/3/3
f 54/56/55 56/42/41 7/44/43
f 64/57/56 66/45/44 12/47/46
f 48/53/52 63/4/4 61/6/6
f 50/27/27 61/6/6 59/7/7
f 52/48/47 59/7/7 57/10/10
f 54/56/55 57/10/10 55/11/11
f 56/42/41 55/11/11 53/13/13
f 58/54/53 53/13/13 51/16/16
f 60/38/37 51/16/16 49/18/18
f 64/57/56 62/50/49 49/18/18
f 64/57/56 47/19/19 45/22/22
f 66/45/44 45/22/22 44/24/24
f 70/1/1 68/55/54 44/24/24
f 43/58/32 70/1/1 67/26/26
f 46/34/34 65/33/33 63/4/4
f 43/32/32 46/34/34 2/35/35
f 9/40/39 10/39/38 80/59/57
f 3/41/40 73/63/61 72/61/59
f 10/39/38 11/51/50 81/62/60
f 4/29/29 74/64/62 73/63/61
f 12/47/46 82/65/63 81/62/60
f 5/28/28 75/67/65 74/64/62
f 13/46/45 83/68/66 82/65/63
f 5/28/28 6/49/48 76/66/64
f 14/3/3 84/70/68 83/68/66
f 6/49/48 7/44/43 77/69/67
f 1/2/2 71/74/36 84/70/68
f 7/44/43 8/43/42 78/71/69
f 8/43/42 9/40/39 79/60/58
f 69/72/31 16/75/30 15/73/70
s 2
f 25/20/20 96/76/71 26/21/21
f 18/5/5 89/77/72 19/8/8
f 26/21/21 97/78/73 27/23/23
f 19/8/8 90/79/74 20/9/9
f 27/23/23 98/80/75 28/25/25
f 20/9/9 91/81/76 21/12/12
f 28/25/25 86/82/77 16/30/30
f 21/12/12 92/83/78 22/14/14
f 22/14/14 93/84/79 23/15/15
f 16/75/30 85/85/80 15/73/70
f 23/15/15 94/86/81 24/17/17
f 15/73/70 87/87/82 17/52/51
f 24/17/17 95/88/83 25/20/20
f 18/5/5 87/87/82 88/89/84
f 25/20/20 95/88/83 96/76/71
f 18/5/5 88/89/84 89/77/72
f 26/21/21 96/76/71 97/78/73
f 19/8/8 89/77/72 90/79/74
f 27/23/23 97/78/73 98/80/75
f 20/9/9 90/79/74 91/81/76
f 28/25/25 98/80/75 86/82/77
f 21/12/12 91/81/76 92/83/78
f 22/14/14 92/83/78 93/84/79
f 16/75/30 86/90/77 85/85/80
f 23/15/15 93/84/79 94/86/81
f 15/73/70 85/85/80 87/87/82
f 24/17/17 94/86/81 95/88/83
f 18/5/5 17/52/51 87/87/82
s 3
f 38/91/85 109/92/86 39/93/87
f 30/94/88 85/95/80 86/96/77
f 31/97/89 85/95/80 29/98/90
f 31/97/89 88/99/84 87/100/82
f 32/101/91 89/102/72 88/99/84
f 34/103/92 89/102/72 33/104/93
f 35/105/94 90/106/74 34/103/92
f 35/105/94 92/107/78 91/108/76
f 37/109/95 92/107/78 36/110/96
f 38/91/85 93/111/79 37/109/95
f 39/93/87 94/112/81 38/91/85
f 40/113/97 95/114/83 39/93/87
f 41/115/98 96/116/71 40/113/97
f 41/115/98 98/117/75 97/118/73
f 30/94/88 98/117/75 42/119/99
f 111/120/100 107/121/101 101/122/102
f 31/97/89 102/123/103 32/101/91
f 39/93/87 110/124/104 40/113/97
f 32/101/91 103/125/105 33/104/93
f 41/115/98 110/124/104 111/120/100
f 34/103/92 103/125/105 104/126/106
f 41/115/98 112/127/107 42/119/99
f 34/103/92 105/128/108 35/105/94
f 30/94/88 112/127/107 100/129/109
f 36/110/96 105/128/108 106/130/110
f 36/110/96 107/121/101 37/109/95
f 30/94/88 99/131/111 29/98/90
f 37/109/95 108/132/112 38/91/85
f 29/98/90 101/122/102 31/97/89
f 38/91/85 108/132/112 109/92/86
f 30/94/88 29/98/90 85/95/80
f 31/97/89 87/100/82 85/95/80
f 31/97/89 32/101/91 88/99/84
f 32/101/91 33/104/93 89/102/72
f 34/103/92 90/106/74 89/102/72
f 35/105/94 91/108/76 90/106/74
f 35/105/94 36/110/96 92/107/78
f 37/109/95 93/111/79 92/107/78
f 38/91/85 94/112/81 93/111/79
f 39/93/87 95/114/83 94/112/81
f 40/113/97 96/116/71 95/114/83
f 41/115/98 97/118/73 96/116/71
f 41/115/98 42/119/99 98/117/75
f 30/94/88 86/96/77 98/117/75
f 101/122/102 99/131/111 100/129/109
f 100/129/109 112/127/107 101/122/102
f 111/120/100 110/124/104 107/121/101
f 109/92/86 108/132/112 107/121/101
f 107/121/101 106/130/110 105/128/108
f 105/128/108 104/126/106 107/121/101
f 103/125/105 102/123/103 101/122/102
f 101/122/102 112/127/107 111/120/100
f 110/124/104 109/92/86 107/121/101
f 107/121/101 104/126/106 103/125/105
f 103/125/105 101/122/102 107/121/101
f 31/97/89 101/122/102 102/123/103
f 39/93/87 109/92/86 110/124/104
f 32/101/91 102/123/103 103/125/105
f 41/115/98 40/113/97 110/124/104
f 34/103/92 33/104/93 103/125/105
f 41/115/98 111/120/100 112/127/107
f 34/103/92 104/126/106 105/128/108
f 30/94/88 42/119/99 112/127/107
f 36/110/96 35/105/94 105/128/108
f 36/110/96 106/130/110 107/121/101
f 30/94/88 100/129/109 99/131/111
f 37/109/95 107/121/101 108/132/112
f 29/98/90 99/131/111 101/122/102
s 4
f 74/133/62 78/134/69 82/135/63
f 84/136/68 71/137/36 72/138/59
f 72/138/59 73/139/61 74/133/62
f 74/133/62 75/140/65 76/141/64
f 76/141/64 77/142/67 78/134/69
f 78/134/69 79/143/58 80/144/57
f 80/144/57 81/145/60 82/135/63
f 82/135/63 83/146/66 74/133/62
f 84/136/68 72/138/59 74/133/62
f 74/133/62 76/141/64 78/134/69
f 78/134/69 80/144/57 82/135/63
f 83/146/66 84/136/68 74/133/62
